<mxfile host="app.diagrams.net" agent="Mozilla/5.0 (Windows NT 10.0; Win64; x64) AppleWebKit/537.36 (KHTML, like Gecko) Chrome/128.0.0.0 Safari/537.36 OPR/114.0.0.0" version="24.8.0">
  <diagram name="Page-1" id="hHX90E5bN0p5r7sQJlDf">
    <mxGraphModel dx="1086" dy="510" grid="1" gridSize="10" guides="1" tooltips="1" connect="1" arrows="1" fold="1" page="1" pageScale="1" pageWidth="827" pageHeight="1169" math="0" shadow="0">
      <root>
        <mxCell id="0" />
        <mxCell id="1" parent="0" />
        <mxCell id="SuJQQIhMxVzniDtmF7G--30" value="" style="rounded=0;whiteSpace=wrap;html=1;" vertex="1" parent="1">
          <mxGeometry x="127.5" y="310" width="185" height="450" as="geometry" />
        </mxCell>
        <mxCell id="SuJQQIhMxVzniDtmF7G--1" value="Représentant" style="shape=umlActor;verticalLabelPosition=bottom;verticalAlign=top;html=1;outlineConnect=0;" vertex="1" parent="1">
          <mxGeometry x="70" y="125" width="30" height="60" as="geometry" />
        </mxCell>
        <mxCell id="SuJQQIhMxVzniDtmF7G--32" style="edgeStyle=orthogonalEdgeStyle;rounded=0;orthogonalLoop=1;jettySize=auto;html=1;" edge="1" parent="1" target="SuJQQIhMxVzniDtmF7G--20">
          <mxGeometry relative="1" as="geometry">
            <mxPoint x="70" y="560" as="sourcePoint" />
          </mxGeometry>
        </mxCell>
        <mxCell id="SuJQQIhMxVzniDtmF7G--33" style="edgeStyle=orthogonalEdgeStyle;rounded=0;orthogonalLoop=1;jettySize=auto;html=1;" edge="1" parent="1" source="SuJQQIhMxVzniDtmF7G--4" target="SuJQQIhMxVzniDtmF7G--27">
          <mxGeometry relative="1" as="geometry" />
        </mxCell>
        <mxCell id="SuJQQIhMxVzniDtmF7G--4" value="Directeur personnel" style="shape=umlActor;verticalLabelPosition=bottom;verticalAlign=top;html=1;outlineConnect=0;" vertex="1" parent="1">
          <mxGeometry x="40" y="530" width="30" height="60" as="geometry" />
        </mxCell>
        <mxCell id="SuJQQIhMxVzniDtmF7G--6" value="Directeur communication" style="shape=umlActor;verticalLabelPosition=bottom;verticalAlign=top;html=1;outlineConnect=0;" vertex="1" parent="1">
          <mxGeometry x="590" y="190" width="30" height="60" as="geometry" />
        </mxCell>
        <mxCell id="SuJQQIhMxVzniDtmF7G--14" value="" style="group" vertex="1" connectable="0" parent="1">
          <mxGeometry x="430" y="15" width="120" height="160" as="geometry" />
        </mxCell>
        <mxCell id="SuJQQIhMxVzniDtmF7G--10" value="" style="rounded=0;whiteSpace=wrap;html=1;" vertex="1" parent="SuJQQIhMxVzniDtmF7G--14">
          <mxGeometry width="120" height="160" as="geometry" />
        </mxCell>
        <mxCell id="SuJQQIhMxVzniDtmF7G--11" value="Initialiser campagne de formation" style="rounded=1;whiteSpace=wrap;html=1;" vertex="1" parent="SuJQQIhMxVzniDtmF7G--14">
          <mxGeometry x="20" y="20" width="80" height="50" as="geometry" />
        </mxCell>
        <mxCell id="SuJQQIhMxVzniDtmF7G--12" value="Publier le catalogue" style="rounded=1;whiteSpace=wrap;html=1;" vertex="1" parent="SuJQQIhMxVzniDtmF7G--14">
          <mxGeometry x="20" y="95" width="80" height="45" as="geometry" />
        </mxCell>
        <mxCell id="SuJQQIhMxVzniDtmF7G--17" value="" style="group" vertex="1" connectable="0" parent="1">
          <mxGeometry x="360" y="80" width="30" height="60" as="geometry" />
        </mxCell>
        <mxCell id="SuJQQIhMxVzniDtmF7G--5" value="RH" style="shape=umlActor;verticalLabelPosition=bottom;verticalAlign=top;html=1;outlineConnect=0;" vertex="1" parent="SuJQQIhMxVzniDtmF7G--17">
          <mxGeometry width="30" height="60" as="geometry" />
        </mxCell>
        <mxCell id="SuJQQIhMxVzniDtmF7G--15" value="" style="endArrow=classic;html=1;rounded=0;entryX=0;entryY=0.5;entryDx=0;entryDy=0;" edge="1" parent="SuJQQIhMxVzniDtmF7G--17" source="SuJQQIhMxVzniDtmF7G--5" target="SuJQQIhMxVzniDtmF7G--11">
          <mxGeometry width="50" height="50" relative="1" as="geometry">
            <mxPoint x="70" y="50" as="sourcePoint" />
            <mxPoint x="120" as="targetPoint" />
          </mxGeometry>
        </mxCell>
        <mxCell id="SuJQQIhMxVzniDtmF7G--16" value="" style="endArrow=classic;html=1;rounded=0;exitX=1;exitY=0.3333333333333333;exitDx=0;exitDy=0;exitPerimeter=0;entryX=0;entryY=0.5;entryDx=0;entryDy=0;" edge="1" parent="SuJQQIhMxVzniDtmF7G--17" source="SuJQQIhMxVzniDtmF7G--5" target="SuJQQIhMxVzniDtmF7G--12">
          <mxGeometry width="50" height="50" relative="1" as="geometry">
            <mxPoint x="70" y="50" as="sourcePoint" />
            <mxPoint x="120" as="targetPoint" />
          </mxGeometry>
        </mxCell>
        <mxCell id="SuJQQIhMxVzniDtmF7G--18" value="" style="group" vertex="1" connectable="0" parent="1">
          <mxGeometry x="150" y="80" width="120" height="150" as="geometry" />
        </mxCell>
        <mxCell id="SuJQQIhMxVzniDtmF7G--7" value="" style="rounded=0;whiteSpace=wrap;html=1;" vertex="1" parent="SuJQQIhMxVzniDtmF7G--18">
          <mxGeometry width="120" height="150" as="geometry" />
        </mxCell>
        <mxCell id="SuJQQIhMxVzniDtmF7G--8" value="Formuler demande" style="rounded=1;whiteSpace=wrap;html=1;" vertex="1" parent="SuJQQIhMxVzniDtmF7G--18">
          <mxGeometry x="25" y="55" width="70" height="40" as="geometry" />
        </mxCell>
        <mxCell id="SuJQQIhMxVzniDtmF7G--9" value="" style="endArrow=classic;html=1;rounded=0;entryX=0;entryY=0.5;entryDx=0;entryDy=0;exitX=1;exitY=0.3333333333333333;exitDx=0;exitDy=0;exitPerimeter=0;" edge="1" parent="SuJQQIhMxVzniDtmF7G--18" source="SuJQQIhMxVzniDtmF7G--1" target="SuJQQIhMxVzniDtmF7G--8">
          <mxGeometry width="50" height="50" relative="1" as="geometry">
            <mxPoint x="-50" y="75" as="sourcePoint" />
            <mxPoint x="100" y="60" as="targetPoint" />
          </mxGeometry>
        </mxCell>
        <mxCell id="SuJQQIhMxVzniDtmF7G--20" value="" style="rounded=0;whiteSpace=wrap;html=1;" vertex="1" parent="1">
          <mxGeometry x="160" y="340" width="120" height="220" as="geometry" />
        </mxCell>
        <mxCell id="SuJQQIhMxVzniDtmF7G--25" value="" style="group" vertex="1" connectable="0" parent="1">
          <mxGeometry x="185" y="380" width="70" height="170" as="geometry" />
        </mxCell>
        <mxCell id="SuJQQIhMxVzniDtmF7G--21" value="Gérer négociation" style="rounded=1;whiteSpace=wrap;html=1;" vertex="1" parent="SuJQQIhMxVzniDtmF7G--25">
          <mxGeometry width="70" height="50" as="geometry" />
        </mxCell>
        <mxCell id="SuJQQIhMxVzniDtmF7G--22" value="Rédiger contre-proposition" style="rounded=1;whiteSpace=wrap;html=1;" vertex="1" parent="SuJQQIhMxVzniDtmF7G--25">
          <mxGeometry y="60" width="70" height="50" as="geometry" />
        </mxCell>
        <mxCell id="SuJQQIhMxVzniDtmF7G--23" value="Enregistrer stages" style="rounded=1;whiteSpace=wrap;html=1;" vertex="1" parent="SuJQQIhMxVzniDtmF7G--25">
          <mxGeometry y="120" width="70" height="50" as="geometry" />
        </mxCell>
        <mxCell id="SuJQQIhMxVzniDtmF7G--26" value="Négocier catalogue" style="text;html=1;align=center;verticalAlign=middle;whiteSpace=wrap;rounded=0;" vertex="1" parent="1">
          <mxGeometry x="190" y="340" width="60" height="30" as="geometry" />
        </mxCell>
        <mxCell id="SuJQQIhMxVzniDtmF7G--27" value="" style="rounded=0;whiteSpace=wrap;html=1;" vertex="1" parent="1">
          <mxGeometry x="160" y="570" width="120" height="170" as="geometry" />
        </mxCell>
        <mxCell id="SuJQQIhMxVzniDtmF7G--28" value="Analyser demande budget" style="rounded=1;whiteSpace=wrap;html=1;" vertex="1" parent="1">
          <mxGeometry x="185" y="610" width="70" height="50" as="geometry" />
        </mxCell>
        <mxCell id="SuJQQIhMxVzniDtmF7G--29" value="Traiter demande budget" style="text;html=1;align=center;verticalAlign=middle;whiteSpace=wrap;rounded=0;" vertex="1" parent="1">
          <mxGeometry x="170" y="570" width="100" height="30" as="geometry" />
        </mxCell>
        <mxCell id="SuJQQIhMxVzniDtmF7G--24" value="Editer demande devis" style="rounded=1;whiteSpace=wrap;html=1;" vertex="1" parent="1">
          <mxGeometry x="185" y="680" width="70" height="50" as="geometry" />
        </mxCell>
      </root>
    </mxGraphModel>
  </diagram>
</mxfile>
